<svg viewBox="16.5 4.851 104.671 98.649" xmlns="http://www.w3.org/2000/svg" role="img">
  <title>Isometric cube with colored floating quads</title>
  <desc>
    Wireframe cube and six floating quads, each quad using coordinated fill/stroke color pairs. Colors adapt for dark mode.
  </desc>
  <defs>
    <style>
      /* light mode (default) */
      .cube {
        fill: none;
        stroke: #1e293b;            /* slate-800-ish */
        stroke-width: 3;
        stroke-linejoin: round;
      }

      .quad1 {
        fill: #0ea5e9;              /* sky-500 */
        stroke: #075985;            /* sky-800 */
        stroke-width: 1;
        stroke-linejoin: round;
      }

      .quad2 {
        fill: #10b981;              /* emerald-500 */
        stroke: #065f46;            /* emerald-800 */
        stroke-width: 1;
        stroke-linejoin: round;
      }

      .quad3 {
        fill: #facc15;              /* yellow-400 */
        stroke: #854d0e;            /* amber-800 */
        stroke-width: 1;
        stroke-linejoin: round;
      }

      /* dark mode overrides */
      @media (prefers-color-scheme: dark) {
        .cube {
          stroke: #f8fafc;          /* almost-white for contrast */
        }

        .quad1 {
          fill: #38bdf8;            /* sky-400 */
          stroke: #e0f2fe;          /* sky-100 (light edge so it glows) */
        }

        .quad2 {
          fill: #34d399;            /* emerald-400 */
          stroke: #d1fae5;          /* emerald-100 */
        }

        .quad3 {
          fill: #fde047;            /* yellow-300 */
          stroke: #fef9c3;          /* yellow-100 */
        }
      }
    </style>
  </defs>
<!--cube outline only-->
  <g class="cube">
    <polygon points="60,55 20,35 60,15 80,25 60,35 80,45"/>
    <polygon points="100,80 60,100 60,55 80,45 80,55 100,45"/>
    <polygon points="60,55 20,35 20,80 60,100"/>
    <polygon points="60,55 100,80 60,100 20,80"/>
  </g>
<!--floating aligned quads-->
<!--We'll alternate quad1 / quad2 / quad3 so you get visual rhythm-->
  <polygon class="quad1" points="69.954,35.111 86.006,27.085 102.058,35.111 86.006,43.137"/>
  <polygon class="quad2" points="99.356,15.547 109.013,10.719 118.671,15.547 109.013,20.376"/>
  <polygon class="quad3" points="92.589,10.123 98.133,7.351 103.677,10.123 98.133,12.895"/>
  <polygon class="quad1" points="86.218,21.261 94.928,16.906 103.638,21.261 94.928,25.616"/>
  <polygon class="quad2" points="98.141,34.969 106.677,30.701 115.214,34.969 106.677,39.237"/>
  <polygon class="quad3" points="100.386,28.46 106.866,25.22 113.346,28.46 106.866,31.7"/>
</svg>
